<svg width="74" height="75" viewBox="0 0 74 75" fill="none" xmlns="http://www.w3.org/2000/svg">
<path d="M74 37.209C74 16.7744 57.4345 0.208984 37 0.208984C16.5655 0.208984 0 16.7744 0 37.209C0 57.6435 16.5655 74.209 37 74.209C57.4345 74.209 74 57.6435 74 37.209Z" fill="url(#paint0_linear_7805_3106)"/>
<path d="M54.4321 38.7207C54.6605 36.1308 54.3074 33.5852 53.4515 31.2357C51.5727 31.6078 49.9433 31.2448 49.2896 30.1133C48.6378 28.9797 49.1387 27.3876 50.4 25.9483C48.7907 24.0323 46.7641 22.4542 44.4065 21.3569C43.3424 22.9451 41.9343 23.8392 40.6721 23.5012C39.4108 23.1633 38.6394 21.6838 38.5116 19.7768C35.9228 19.5485 33.3771 19.9016 31.0276 20.7575C31.4008 22.6353 31.0377 24.2656 29.9042 24.9194C28.7727 25.5732 27.1805 25.0713 25.7392 23.811C23.8242 25.4163 22.2451 27.4449 21.1478 29.8015C22.737 30.8656 23.6311 32.2747 23.2942 33.5359C22.9542 34.7972 21.4747 35.5706 19.5678 35.6973C19.3394 38.2862 19.6935 40.8319 20.5484 43.1814C22.4262 42.8082 24.0566 43.1713 24.7113 44.3038C25.3661 45.4363 24.8632 47.0285 23.6019 48.4698C25.2092 50.3848 27.2368 51.9638 29.5944 53.0612C30.6575 51.472 32.0656 50.5779 33.3289 50.9158C34.5901 51.2548 35.3615 52.7343 35.4893 54.6412C38.0802 54.8695 40.6238 54.5155 42.9733 53.6596C42.6022 51.7818 42.9652 50.1514 44.0967 49.4977C45.2282 48.8449 46.8234 49.3448 48.2617 50.606C50.1777 48.9998 51.7558 46.9711 52.8541 44.6146C51.2649 43.5505 50.3708 42.1414 50.7087 40.8801C51.0487 39.6209 52.5262 38.8485 54.4321 38.7207ZM46.9059 39.8653C45.4405 45.3357 39.8161 48.5824 34.3457 47.116C28.8753 45.6495 25.6296 40.0262 27.095 34.5558C28.5604 29.0843 34.1848 25.8387 39.6552 27.3041C45.1257 28.7685 48.3713 34.3928 46.9059 39.8653Z" fill="white"/>
<path d="M36.9999 38.601C39.3172 38.601 41.195 36.0674 41.195 33.4594C41.195 30.8525 39.3172 29.1577 36.9999 29.1577C34.6815 29.1577 32.8027 30.8525 32.8027 33.4594C32.8027 36.0674 34.6815 38.601 36.9999 38.601Z" fill="white"/>
<path d="M38.8334 40.0283H35.1643C32.6851 40.0283 30.6292 41.6466 30.1807 43.1251C31.8362 45.0321 34.2742 46.244 36.9989 46.244C39.7245 46.244 42.1615 45.0321 43.817 43.1251C43.3695 41.6466 41.3126 40.0283 38.8334 40.0283Z" fill="white"/>
<defs>
<linearGradient id="paint0_linear_7805_3106" x1="37" y1="0.208984" x2="37" y2="74.209" gradientUnits="userSpaceOnUse">
<stop stop-color="#EF423E"/>
<stop offset="1" stop-color="#FD6428"/>
</linearGradient>
</defs>
</svg>
