<svg width="74" height="75" viewBox="0 0 74 75" fill="none" xmlns="http://www.w3.org/2000/svg">
<path d="M74 37.209C74 16.7744 57.4345 0.208984 37 0.208984C16.5655 0.208984 0 16.7744 0 37.209C0 57.6435 16.5655 74.209 37 74.209C57.4345 74.209 74 57.6435 74 37.209Z" fill="url(#paint0_linear_7805_4972)"/>
<path d="M54.5 50.959V53.459C54.5 54.209 53.8913 54.709 52.9783 54.709H40.8043C39.8913 54.709 39.2826 54.209 39.2826 53.459V50.959C39.2826 48.334 41.2609 46.0838 44.1522 45.209C43.087 44.459 42.3261 43.459 42.3261 42.209C42.3261 40.084 44.3043 38.459 46.8913 38.459C49.4783 38.459 51.4565 40.084 51.4565 42.209C51.4565 43.459 50.6957 44.459 49.6304 45.209C52.5217 46.084 54.5 48.334 54.5 50.959ZM28.6304 29.709H43.8478V27.209H28.6304V29.709ZM36.2391 52.209V54.709H24.0652C21.4783 54.709 19.5 52.959 19.5 50.959V23.459C19.5 21.334 21.4783 19.709 24.0652 19.709H48.413C51 19.709 52.9783 21.334 52.9783 23.459V38.5838C51.6087 36.9588 49.4783 35.9588 46.8913 35.9588C42.7826 35.9588 39.435 38.7088 39.435 42.0836C39.435 43.2086 39.8915 44.3336 40.5002 45.2086C37.9133 46.7086 36.2394 49.3334 36.2394 52.2086L36.2391 52.209ZM34.7174 47.209C34.7174 46.584 33.9565 45.959 33.1957 45.959H27.1087C26.3478 45.959 25.587 46.584 25.587 47.209C25.587 47.834 26.3478 48.459 27.1087 48.459H33.1957C33.9565 48.459 34.7174 47.834 34.7174 47.209ZM34.7174 42.209C34.7174 41.584 33.9565 40.959 33.1957 40.959H27.1087C26.3478 40.959 25.587 41.584 25.587 42.209C25.587 42.834 26.3478 43.459 27.1087 43.459H33.1957C33.9565 43.459 34.7174 42.834 34.7174 42.209ZM34.7174 37.209C34.7174 36.584 33.9565 35.959 33.1957 35.959H27.1087C26.3478 35.959 25.587 36.584 25.587 37.209C25.587 37.834 26.3478 38.459 27.1087 38.459H33.1957C33.9565 38.459 34.7174 37.834 34.7174 37.209ZM45.3696 32.209C46.1304 32.209 46.8913 31.584 46.8913 30.959V25.959C46.8913 25.334 46.1304 24.709 45.3696 24.709H27.1087C26.3478 24.709 25.587 25.334 25.587 25.959V30.959C25.587 31.584 26.3478 32.209 27.1087 32.209H45.3696Z" fill="white"/>
<defs>
<linearGradient id="paint0_linear_7805_4972" x1="37" y1="0.208984" x2="37" y2="74.209" gradientUnits="userSpaceOnUse">
<stop stop-color="#EF423E"/>
<stop offset="1" stop-color="#FD6428"/>
</linearGradient>
</defs>
</svg>
