<svg width="74" height="75" viewBox="0 0 74 75" fill="none" xmlns="http://www.w3.org/2000/svg">
<path d="M74 37.209C74 16.7744 57.4345 0.208984 37 0.208984C16.5655 0.208984 0 16.7744 0 37.209C0 57.6435 16.5655 74.209 37 74.209C57.4345 74.209 74 57.6435 74 37.209Z" fill="url(#paint0_linear_7805_2136)"/>
<path d="M41.3748 42.459H33.0098L30.6035 45.4602C31.2258 45.7908 31.9202 45.9621 32.6248 45.959H41.8298L48.5673 54.3764C48.6475 54.481 48.7509 54.5655 48.8693 54.6232C48.9878 54.6809 49.118 54.7102 49.2498 54.709C49.3483 54.7085 49.4461 54.6908 49.5385 54.6564C49.7093 54.5968 49.8573 54.4856 49.9623 54.3383C50.0673 54.191 50.124 54.0148 50.1248 53.834V45.959C51.2851 45.959 52.3979 45.498 53.2184 44.6776C54.0388 43.8571 54.4998 42.7443 54.4998 41.584V29.334C54.4998 28.1737 54.0388 27.0609 53.2184 26.2404C52.3979 25.4199 51.2851 24.959 50.1248 24.959H47.4998V36.334C47.4979 37.9579 46.852 39.5147 45.7037 40.6629C44.5555 41.8112 42.9986 42.4571 41.3748 42.459Z" fill="white"/>
<path d="M23.875 40.709V48.584C23.8757 48.7648 23.9325 48.941 24.0375 49.0883C24.1425 49.2356 24.2905 49.3468 24.4613 49.4064C24.5537 49.4408 24.6514 49.4585 24.75 49.459C24.8818 49.4602 25.012 49.4309 25.1305 49.3732C25.2489 49.3155 25.3523 49.231 25.4325 49.1264L32.17 40.709H41.375C42.5353 40.709 43.6481 40.248 44.4686 39.4276C45.2891 38.6071 45.75 37.4943 45.75 36.334V24.084C45.75 22.9237 45.2891 21.8109 44.4686 20.9904C43.6481 20.1699 42.5353 19.709 41.375 19.709H23.875C22.7147 19.709 21.6019 20.1699 20.7814 20.9904C19.9609 21.8109 19.5 22.9237 19.5 24.084V36.334C19.5 37.4943 19.9609 38.6071 20.7814 39.4276C21.6019 40.248 22.7147 40.709 23.875 40.709ZM25.625 24.959H34.375C34.6071 24.959 34.8296 25.0512 34.9937 25.2153C35.1578 25.3794 35.25 25.6019 35.25 25.834C35.25 26.066 35.1578 26.2886 34.9937 26.4527C34.8296 26.6168 34.6071 26.709 34.375 26.709H25.625C25.3929 26.709 25.1704 26.6168 25.0063 26.4527C24.8422 26.2886 24.75 26.066 24.75 25.834C24.75 25.6019 24.8422 25.3794 25.0063 25.2153C25.1704 25.0512 25.3929 24.959 25.625 24.959ZM25.625 29.334H39.625C39.8571 29.334 40.0796 29.4262 40.2437 29.5903C40.4078 29.7543 40.5 29.9769 40.5 30.209C40.5 30.441 40.4078 30.6636 40.2437 30.8277C40.0796 30.9918 39.8571 31.084 39.625 31.084H25.625C25.3929 31.084 25.1704 30.9918 25.0063 30.8277C24.8422 30.6636 24.75 30.441 24.75 30.209C24.75 29.9769 24.8422 29.7543 25.0063 29.5903C25.1704 29.4262 25.3929 29.334 25.625 29.334ZM25.625 33.709H39.625C39.8571 33.709 40.0796 33.8012 40.2437 33.9652C40.4078 34.1293 40.5 34.3519 40.5 34.584C40.5 34.816 40.4078 35.0386 40.2437 35.2027C40.0796 35.3668 39.8571 35.459 39.625 35.459H25.625C25.3929 35.459 25.1704 35.3668 25.0063 35.2027C24.8422 35.0386 24.75 34.816 24.75 34.584C24.75 34.3519 24.8422 34.1293 25.0063 33.9652C25.1704 33.8012 25.3929 33.709 25.625 33.709Z" fill="white"/>
<defs>
<linearGradient id="paint0_linear_7805_2136" x1="37" y1="0.208984" x2="37" y2="74.209" gradientUnits="userSpaceOnUse">
<stop stop-color="#EF423E"/>
<stop offset="1" stop-color="#FD6428"/>
</linearGradient>
</defs>
</svg>
