<svg width="41" height="41" viewBox="0 0 41 41" fill="none" xmlns="http://www.w3.org/2000/svg">
<path d="M10.5 23.5C10.5 22.5111 10.2068 21.5444 9.65735 20.7222C9.10795 19.8999 8.32705 19.259 7.41342 18.8806C6.49979 18.5022 5.49446 18.4031 4.52455 18.5961C3.55465 18.789 2.66373 19.2652 1.96447 19.9645C1.26521 20.6637 0.789002 21.5546 0.596076 22.5246C0.40315 23.4945 0.502166 24.4998 0.880605 25.4134C1.25904 26.3271 1.89991 27.1079 2.72215 27.6574C3.5444 28.2068 4.5111 28.5 5.5 28.5V41H35.5V28.5C36.4889 28.5 37.4556 28.2068 38.2779 27.6574C39.1001 27.1079 39.741 26.3271 40.1194 25.4134C40.4978 24.4998 40.5969 23.4945 40.4039 22.5246C40.211 21.5546 39.7348 20.6637 39.0355 19.9645C38.3363 19.2652 37.4454 18.789 36.4755 18.5961C35.5056 18.4031 34.5002 18.5022 33.5866 18.8806C32.673 19.259 31.8921 19.8999 31.3427 20.7222C30.7933 21.5444 30.5 22.5111 30.5 23.5V28.5H10.5V23.5Z" fill="#4FBCFE"/>
<path d="M14.2508 23.4999C14.2508 21.1879 13.3358 18.9698 11.7057 17.3303C10.0755 15.6908 7.86275 14.7631 5.55078 14.7499C5.85805 10.9961 7.56627 7.49517 10.336 4.94286C13.1058 2.39055 16.7344 0.973633 20.5008 0.973633C24.2672 0.973633 27.8958 2.39055 30.6655 4.94286C33.4353 7.49517 35.1435 10.9961 35.4508 14.7499C33.1388 14.7631 30.926 15.6908 29.2959 17.3303C27.6657 18.9698 26.7507 21.1879 26.7508 23.4999V24.7499H14.2508V23.4999Z" fill="#4FBCFE"/>
</svg>
