<svg width="41" height="40" viewBox="0 0 41 40" fill="none" xmlns="http://www.w3.org/2000/svg">
<path d="M20.5007 11.6667C23.3573 11.6667 23.834 9.43333 23.834 7.59333C23.834 5.75 22.604 2.5 20.5007 2.5C18.3973 2.5 17.1673 5.75167 17.1673 7.59333C17.1673 9.435 17.644 11.6667 20.5007 11.6667ZM6.33398 17.0833C6.33398 16.0888 6.72907 15.1349 7.43233 14.4317C8.1356 13.7284 9.08942 13.3333 10.084 13.3333H30.9173C31.9119 13.3333 32.8657 13.7284 33.569 14.4317C34.2722 15.1349 34.6673 16.0888 34.6673 17.0833V18.5417L28.6107 23.085C28.2817 23.3316 27.8872 23.4753 27.4767 23.4982C27.0663 23.521 26.6582 23.4219 26.304 23.2133L22.904 21.2133C22.1721 20.7832 21.3352 20.5649 20.4865 20.5825C19.6378 20.6002 18.8107 20.8532 18.0973 21.3133L15.1623 23.2067C14.8271 23.4228 14.4369 23.5381 14.0381 23.539C13.6392 23.5399 13.2485 23.4263 12.9123 23.2117L6.33398 19.0133V17.0833ZM6.33398 21.98V30.8333H5.08398C4.75246 30.8333 4.43452 30.965 4.2001 31.1994C3.96568 31.4339 3.83398 31.7518 3.83398 32.0833C3.83398 32.4149 3.96568 32.7328 4.2001 32.9672C4.43452 33.2016 4.75246 33.3333 5.08398 33.3333H35.9173C36.2488 33.3333 36.5668 33.2016 36.8012 32.9672C37.0356 32.7328 37.1673 32.4149 37.1673 32.0833C37.1673 31.7518 37.0356 31.4339 36.8012 31.1994C36.5668 30.965 36.2488 30.8333 35.9173 30.8333H34.6673V21.6667L30.1107 25.0833C29.3874 25.626 28.5198 25.9425 27.6171 25.9933C26.7144 26.044 25.8168 25.8265 25.0373 25.3683L21.6373 23.3683C21.3047 23.1727 20.9242 23.0734 20.5384 23.0813C20.1526 23.0893 19.7766 23.2042 19.4523 23.4133L16.519 25.3067C15.7816 25.7828 14.9229 26.0372 14.0451 26.0396C13.1673 26.0419 12.3073 25.7922 11.5673 25.32L6.33398 21.98Z" fill="#4FBCFE"/>
</svg>
