<svg width="41" height="40" viewBox="0 0 41 40" fill="none" xmlns="http://www.w3.org/2000/svg">
<path d="M32.3007 11C31.1007 9 28.9007 8 26.5007 8H14.5007C12.1007 8 9.90067 9 8.70068 11C4.10068 18 3.10068 28.6 6.30068 30.8C9.50068 33 16.7007 23.4 20.5007 23.4C24.3007 23.4 31.3007 33 34.7007 30.8C37.9007 28.6 36.9007 18 32.3007 11ZM16.5007 18H14.5007V20H12.5007V18H10.5007V16H12.5007V14H14.5007V16H16.5007V18ZM27.3007 19C27.3007 20 26.5007 20.8 25.5007 20.8C24.5007 20.8 23.7007 20 23.7007 19C23.7007 18 24.5007 17.2 25.5007 17.2C26.5007 17.2 27.3007 18 27.3007 19ZM31.1007 15C31.1007 16 30.3007 16.8 29.3007 16.8C28.3007 16.8 27.5007 16 27.5007 15C27.5007 14 28.3007 13.2 29.3007 13.2C30.3007 13.2 31.1007 14 31.1007 15Z" fill="#4FBCFE"/>
</svg>
