<svg width="41" height="40" viewBox="0 0 41 40" fill="none" xmlns="http://www.w3.org/2000/svg">
<path d="M35.5007 5V25.8333C35.5007 27.3804 34.8861 28.8642 33.7921 29.9581C32.6981 31.0521 31.2144 31.6667 29.6673 31.6667C28.1202 31.6667 26.6365 31.0521 25.5425 29.9581C24.4486 28.8642 23.834 27.3804 23.834 25.8333C23.834 24.2862 24.4486 22.8025 25.5425 21.7085C26.6365 20.6146 28.1202 20 29.6673 20C30.5673 20 31.4173 20.2 32.1673 20.5667V10.7833L15.5007 14.3333V29.1667C15.5007 30.7138 14.8861 32.1975 13.7921 33.2915C12.6981 34.3854 11.2144 35 9.66732 35C8.12022 35 6.63649 34.3854 5.54253 33.2915C4.44857 32.1975 3.83398 30.7138 3.83398 29.1667C3.83398 27.6196 4.44857 26.1358 5.54253 25.0419C6.63649 23.9479 8.12022 23.3333 9.66732 23.3333C10.5673 23.3333 11.4173 23.5333 12.1673 23.9V10L35.5007 5Z" fill="#4FBCFE"/>
</svg>
