<svg width="41" height="40" viewBox="0 0 41 40" fill="none" xmlns="http://www.w3.org/2000/svg">
<path d="M37.1674 27.7549C37.1674 28.1716 37.084 28.5882 36.9174 28.9716C36.7562 29.3557 36.5244 29.7062 36.234 30.0049C35.9324 30.2899 35.5824 30.5216 35.2007 30.6882C34.8093 30.8475 34.3899 30.9269 33.9674 30.9216C32.0811 30.8897 30.1972 31.0686 28.3507 31.4549C26.1626 31.713 24.0546 32.4346 22.1674 33.5716V8.72158C23.9857 7.85492 25.934 7.29158 27.934 7.05492C29.9695 6.65087 32.0425 6.46648 34.1174 6.50492C34.9439 6.5508 35.7205 6.9152 36.284 7.52158C36.834 8.10825 37.139 8.88325 37.134 9.68825L37.1674 27.7549ZM18.834 8.72158V33.5716C16.9779 32.4456 14.9049 31.7243 12.7507 31.4549C10.8695 31.0745 8.95313 30.8957 7.03404 30.9216C6.61147 30.9269 6.19213 30.8475 5.8007 30.6882C5.41999 30.5207 5.07056 30.2897 4.76737 30.0049C4.47018 29.7118 4.23744 29.3598 4.08404 28.9716C3.91674 28.5879 3.83158 28.1735 3.83404 27.7549V9.58825C3.83666 8.78481 4.14459 8.0124 4.69544 7.42751C5.24628 6.84262 5.99886 6.48899 6.8007 6.43825C8.9202 6.38467 11.039 6.56916 13.1174 6.98825C15.1068 7.24049 17.0395 7.82649 18.834 8.72158Z" fill="#4FBCFE"/>
</svg>
