<svg width="41" height="40" viewBox="0 0 41 40" fill="none" xmlns="http://www.w3.org/2000/svg">
<path d="M28.8327 30.0002C26.9827 30.0002 25.4993 31.4835 25.4993 33.3335C25.4993 34.2176 25.8505 35.0654 26.4757 35.6905C27.1008 36.3156 27.9486 36.6668 28.8327 36.6668C29.7167 36.6668 30.5646 36.3156 31.1897 35.6905C31.8148 35.0654 32.166 34.2176 32.166 33.3335C32.166 32.4494 31.8148 31.6016 31.1897 30.9765C30.5646 30.3514 29.7167 30.0002 28.8327 30.0002ZM2.16602 3.3335V6.66683H5.49935L11.4993 19.3168L9.23268 23.4002C8.98268 23.8668 8.83268 24.4168 8.83268 25.0002C8.83268 25.8842 9.18387 26.7321 9.80899 27.3572C10.4341 27.9823 11.282 28.3335 12.166 28.3335H32.166V25.0002H12.866C12.7555 25.0002 12.6495 24.9563 12.5714 24.8781C12.4932 24.8 12.4493 24.694 12.4493 24.5835C12.4493 24.5002 12.466 24.4335 12.4993 24.3835L13.9993 21.6668H26.416C27.666 21.6668 28.766 20.9668 29.3327 19.9502L35.2993 9.16683C35.416 8.90016 35.4993 8.61683 35.4993 8.3335C35.4993 7.89147 35.3238 7.46755 35.0112 7.15499C34.6986 6.84242 34.2747 6.66683 33.8327 6.66683H9.18268L7.61602 3.3335M12.166 30.0002C10.316 30.0002 8.83268 31.4835 8.83268 33.3335C8.83268 34.2176 9.18387 35.0654 9.80899 35.6905C10.4341 36.3156 11.282 36.6668 12.166 36.6668C13.0501 36.6668 13.8979 36.3156 14.523 35.6905C15.1482 35.0654 15.4993 34.2176 15.4993 33.3335C15.4993 32.4494 15.1482 31.6016 14.523 30.9765C13.8979 30.3514 13.0501 30.0002 12.166 30.0002Z" fill="#4FBCFE"/>
</svg>
