<svg width="41" height="40" viewBox="0 0 41 40" fill="none" xmlns="http://www.w3.org/2000/svg">
<path d="M35.5007 13.3335C35.9427 13.3335 36.3666 13.5091 36.6792 13.8217C36.9917 14.1342 37.1673 14.5581 37.1673 15.0002C37.1673 15.4422 36.9917 15.8661 36.6792 16.1787C36.3666 16.4912 35.9427 16.6668 35.5007 16.6668V35.0002C35.5007 35.4422 35.3251 35.8661 35.0125 36.1787C34.6999 36.4912 34.276 36.6668 33.834 36.6668C33.392 36.6668 32.968 36.4912 32.6555 36.1787C32.3429 35.8661 32.1673 35.4422 32.1673 35.0002V16.6668H29.3757C29.1945 16.6668 29.014 16.6707 28.834 16.6785V35.0002C28.834 35.4422 28.6584 35.8661 28.3458 36.1787C28.0333 36.4912 27.6093 36.6668 27.1673 36.6668C26.7253 36.6668 26.3014 36.4912 25.9888 36.1787C25.6762 35.8661 25.5007 35.4422 25.5007 35.0002V17.2585C24.3191 17.6298 23.1966 18.168 22.1673 18.8568V35.0002C22.1673 35.4422 21.9917 35.8661 21.6792 36.1787C21.3666 36.4912 20.9427 36.6668 20.5007 36.6668C20.0586 36.6668 19.6347 36.4912 19.3221 36.1787C19.0096 35.8661 18.834 35.4422 18.834 35.0002V22.0868C18.0822 23.1399 17.4918 24.2994 17.0823 25.5268L15.8573 29.2018C15.752 29.5139 15.6336 29.8214 15.5023 30.1235L15.5007 35.0002C15.5007 35.4422 15.3251 35.8661 15.0125 36.1787C14.6999 36.4912 14.276 36.6668 13.834 36.6668C13.392 36.6668 12.968 36.4912 12.6555 36.1787C12.3429 35.8661 12.1673 35.4422 12.1673 35.0002L12.169 34.3935C10.2591 35.8685 7.91379 36.6681 5.50065 36.6668C5.05862 36.6668 4.6347 36.4912 4.32214 36.1787C4.00958 35.8661 3.83398 35.4422 3.83398 35.0002C3.83398 34.5581 4.00958 34.1342 4.32214 33.8217C4.6347 33.5091 5.05862 33.3335 5.50065 33.3335C7.09208 33.3333 8.64313 32.8325 9.93414 31.9019C11.2251 30.9714 12.1907 29.6582 12.694 28.1485L13.919 24.4735C15.0003 21.2294 17.075 18.4078 19.8491 16.4085C22.6232 14.4091 25.9561 13.3333 29.3757 13.3335H35.5007ZM18.4673 7.29183L21.8007 11.4585C21.9403 11.6328 22.0435 11.8333 22.1041 12.0482C22.1647 12.2631 22.1815 12.488 22.1535 12.7095C22.1255 12.931 22.0533 13.1447 21.9412 13.3378C21.829 13.5309 21.6792 13.6994 21.5007 13.8335L14.834 18.8335C14.6299 18.9868 14.3933 19.0912 14.1425 19.1386C13.8916 19.186 13.6333 19.1751 13.3873 19.1068L10.3873 18.2735C10.0638 18.1835 9.775 17.9978 9.55879 17.7409C9.34258 17.4839 9.20903 17.1677 9.17565 16.8335L8.84232 13.5002C8.81362 13.2146 8.85915 12.9265 8.97448 12.6637C9.08982 12.4009 9.27106 12.1724 9.50065 12.0002L16.1673 7.00016C16.5136 6.74074 16.9471 6.62613 17.3763 6.68056C17.8056 6.73499 18.1968 6.95419 18.4673 7.29183ZM33.834 3.3335C34.276 3.3335 34.6999 3.50909 35.0125 3.82165C35.3251 4.13421 35.5007 4.55814 35.5007 5.00016V10.0002C35.5007 10.4422 35.3251 10.8661 35.0125 11.1787C34.6999 11.4912 34.276 11.6668 33.834 11.6668H25.5007C25.0586 11.6668 24.6347 11.4912 24.3221 11.1787C24.0096 10.8661 23.834 10.4422 23.834 10.0002V5.00016C23.834 4.55814 24.0096 4.13421 24.3221 3.82165C24.6347 3.50909 25.0586 3.3335 25.5007 3.3335H33.834Z" fill="#4FBCFE"/>
</svg>
