<svg width="41" height="40" viewBox="0 0 41 40" fill="none" xmlns="http://www.w3.org/2000/svg">
<path d="M24.1507 23.6502L10.5007 30.0002L16.8507 16.3502L30.5007 10.0002M20.5007 3.3335C18.312 3.3335 16.1447 3.76459 14.1226 4.60217C12.1005 5.43975 10.2632 6.66741 8.71554 8.21505C5.58993 11.3407 3.83398 15.5799 3.83398 20.0002C3.83398 24.4204 5.58993 28.6597 8.71554 31.7853C10.2632 33.3329 12.1005 34.5606 14.1226 35.3982C16.1447 36.2357 18.312 36.6668 20.5007 36.6668C24.9209 36.6668 29.1602 34.9109 32.2858 31.7853C35.4114 28.6597 37.1673 24.4204 37.1673 20.0002C37.1673 17.8115 36.7362 15.6442 35.8986 13.6221C35.0611 11.6 33.8334 9.76269 32.2858 8.21505C30.7381 6.66741 28.9008 5.43975 26.8787 4.60217C24.8566 3.76459 22.6894 3.3335 20.5007 3.3335ZM20.5007 18.1668C20.0144 18.1668 19.5481 18.36 19.2043 18.7038C18.8605 19.0476 18.6673 19.5139 18.6673 20.0002C18.6673 20.4864 18.8605 20.9527 19.2043 21.2965C19.5481 21.6403 20.0144 21.8335 20.5007 21.8335C20.9869 21.8335 21.4532 21.6403 21.797 21.2965C22.1408 20.9527 22.334 20.4864 22.334 20.0002C22.334 19.5139 22.1408 19.0476 21.797 18.7038C21.4532 18.36 20.9869 18.1668 20.5007 18.1668Z" fill="#4FBCFE"/>
</svg>
