<svg width="41" height="40" viewBox="0 0 41 40" fill="none" xmlns="http://www.w3.org/2000/svg">
<path d="M32.1673 25.0002C33.084 25.0002 33.834 25.7502 33.834 26.6668C33.834 27.5835 33.084 28.3335 32.1673 28.3335C31.2507 28.3335 30.5007 27.5835 30.5007 26.6668C30.5007 25.7502 31.2507 25.0002 32.1673 25.0002ZM32.1673 21.6668C29.4007 21.6668 27.1673 23.9002 27.1673 26.6668C27.1673 29.4335 29.4007 31.6668 32.1673 31.6668C34.934 31.6668 37.1673 29.4335 37.1673 26.6668C37.1673 23.9002 34.934 21.6668 32.1673 21.6668ZM17.1673 10.0002H8.83398V13.3335H17.1673V10.0002ZM28.834 8.3335H23.834V11.6668H28.834V16.0835L23.0007 23.3335H17.1673V15.0002H10.5007C6.81732 15.0002 3.83398 17.9835 3.83398 21.6668V26.6668H7.16732C7.16732 29.4335 9.40065 31.6668 12.1673 31.6668C14.934 31.6668 17.1673 29.4335 17.1673 26.6668H24.6673L32.1673 17.2502V11.6668C32.1673 10.7828 31.8161 9.93493 31.191 9.30981C30.5659 8.68469 29.718 8.3335 28.834 8.3335ZM12.1673 28.3335C11.2507 28.3335 10.5007 27.5835 10.5007 26.6668H13.834C13.834 27.5835 13.084 28.3335 12.1673 28.3335Z" fill="#4FBCFE"/>
</svg>
