<svg width="41" height="40" viewBox="0 0 41 40" fill="none" xmlns="http://www.w3.org/2000/svg">
<path d="M2.16602 31.6665V6.6665H5.49935V23.3332H18.8327V9.99984H32.166C33.9993 9.99984 35.5688 10.6526 36.8743 11.9582C38.1799 13.2637 38.8327 14.8332 38.8327 16.6665V31.6665H35.4993V26.6665H5.49935V31.6665H2.16602ZM12.166 21.6665C10.7771 21.6665 9.59657 21.1804 8.62435 20.2082C7.65213 19.2359 7.16602 18.0554 7.16602 16.6665C7.16602 15.2776 7.65213 14.0971 8.62435 13.1248C9.59657 12.1526 10.7771 11.6665 12.166 11.6665C13.5549 11.6665 14.7355 12.1526 15.7077 13.1248C16.6799 14.0971 17.166 15.2776 17.166 16.6665C17.166 18.0554 16.6799 19.2359 15.7077 20.2082C14.7355 21.1804 13.5549 21.6665 12.166 21.6665Z" fill="#4FBCFE"/>
</svg>
