<svg width="41" height="40" viewBox="0 0 41 40" fill="none" xmlns="http://www.w3.org/2000/svg">
<path d="M20.4993 15C19.1733 15 17.9015 15.5268 16.9638 16.4645C16.0261 17.4021 15.4993 18.6739 15.4993 20C15.4993 21.3261 16.0261 22.5979 16.9638 23.5355C17.9015 24.4732 19.1733 25 20.4993 25C21.8254 25 23.0972 24.4732 24.0349 23.5355C24.9726 22.5979 25.4993 21.3261 25.4993 20C25.4993 18.6739 24.9726 17.4021 24.0349 16.4645C23.0972 15.5268 21.8254 15 20.4993 15ZM20.4993 28.3333C18.2892 28.3333 16.1696 27.4554 14.6068 25.8926C13.044 24.3298 12.166 22.2101 12.166 20C12.166 17.7899 13.044 15.6702 14.6068 14.1074C16.1696 12.5446 18.2892 11.6667 20.4993 11.6667C22.7095 11.6667 24.8291 12.5446 26.3919 14.1074C27.9547 15.6702 28.8327 17.7899 28.8327 20C28.8327 22.2101 27.9547 24.3298 26.3919 25.8926C24.8291 27.4554 22.7095 28.3333 20.4993 28.3333ZM20.4993 7.5C12.166 7.5 5.04935 12.6833 2.16602 20C5.04935 27.3167 12.166 32.5 20.4993 32.5C28.8327 32.5 35.9493 27.3167 38.8327 20C35.9493 12.6833 28.8327 7.5 20.4993 7.5Z" fill="#4FBCFE"/>
</svg>
