<svg width="41" height="40" viewBox="0 0 41 40" fill="none" xmlns="http://www.w3.org/2000/svg">
<path d="M30.5 36.6668C32.3383 36.6668 33.8333 35.1718 33.8333 33.3335V6.66683C33.8333 4.8285 32.3383 3.3335 30.5 3.3335H13.8333C11.995 3.3335 10.5 4.8285 10.5 6.66683V33.3335C10.5 35.1718 11.995 36.6668 13.8333 36.6668H30.5ZM22.1667 28.3335C22.6087 28.3335 23.0326 28.5091 23.3452 28.8217C23.6577 29.1342 23.8333 29.5581 23.8333 30.0002C23.8333 30.4422 23.6577 30.8661 23.3452 31.1787C23.0326 31.4912 22.6087 31.6668 22.1667 31.6668C21.7246 31.6668 21.3007 31.4912 20.9882 31.1787C20.6756 30.8661 20.5 30.4422 20.5 30.0002C20.5 29.5581 20.6756 29.1342 20.9882 28.8217C21.3007 28.5091 21.7246 28.3335 22.1667 28.3335Z" fill="#4FBCFE"/>
</svg>
