<svg width="41" height="40" viewBox="0 0 41 40" fill="none" xmlns="http://www.w3.org/2000/svg">
<path d="M18.9173 24.1667L25.834 19.75C26.334 19.4167 26.584 18.9444 26.584 18.3333C26.584 17.7222 26.334 17.25 25.834 16.9167L18.9173 12.5C18.3618 12.1389 17.7923 12.1111 17.209 12.4167C16.6257 12.7222 16.334 13.2083 16.334 13.875V22.7917C16.334 23.4583 16.6257 23.9444 17.209 24.25C17.7923 24.5556 18.3618 24.5278 18.9173 24.1667ZM7.16732 31.6667C6.25065 31.6667 5.46621 31.3406 4.81398 30.6883C4.16176 30.0361 3.8351 29.2511 3.83398 28.3333V8.33333C3.83398 7.41667 4.16065 6.63222 4.81398 5.98C5.46732 5.32778 6.25176 5.00111 7.16732 5H33.834C34.7507 5 35.5357 5.32667 36.189 5.98C36.8423 6.63333 37.1684 7.41778 37.1673 8.33333V28.3333C37.1673 29.25 36.8412 30.035 36.189 30.6883C35.5368 31.3417 34.7518 31.6678 33.834 31.6667H27.1673V33.3333C27.1673 33.8056 27.0073 34.2017 26.6873 34.5217C26.3673 34.8417 25.9718 35.0011 25.5007 35H15.5007C15.0284 35 14.6329 34.84 14.314 34.52C13.9951 34.2 13.8351 33.8044 13.834 33.3333V31.6667H7.16732Z" fill="#4FBCFE"/>
</svg>
