<svg width="41" height="40" viewBox="0 0 41 40" fill="none" xmlns="http://www.w3.org/2000/svg">
<path d="M32.1671 4.16667C31.5099 4.17543 30.8825 4.44269 30.4209 4.91058C29.9592 5.37848 29.7004 6.00936 29.7005 6.66667V11.6667C29.7005 12.1087 29.5249 12.5326 29.2123 12.8452C28.8997 13.1577 28.4758 13.3333 28.0338 13.3333H20.5005C20.0584 13.3333 19.6345 13.1577 19.322 12.8452C19.0094 12.5326 18.8338 12.1087 18.8338 11.6667V2.5C18.8338 1.83696 18.5704 1.20107 18.1016 0.732233C17.6327 0.263392 16.9968 0 16.3338 0C15.6708 0 15.0349 0.263392 14.566 0.732233C14.0972 1.20107 13.8338 1.83696 13.8338 2.5V14.6C13.8363 14.7674 13.7884 14.9316 13.6962 15.0713C13.6041 15.211 13.472 15.3197 13.3171 15.3833C13.1616 15.4436 12.9917 15.4568 12.8287 15.4213C12.6657 15.3857 12.5168 15.303 12.4005 15.1833L10.7338 13.5167C10.4949 13.2479 10.2025 13.032 9.87528 12.8828C9.5481 12.7335 9.19338 12.6543 8.8338 12.65C8.4868 12.6477 8.14311 12.7176 7.82461 12.8553C7.5061 12.993 7.21976 13.1956 6.9838 13.45C6.55335 13.8862 6.2932 14.4621 6.25041 15.0735C6.20761 15.6849 6.38499 16.2914 6.75047 16.7833L15.8338 28.5667C15.9891 28.7684 16.1885 28.9318 16.4167 29.0445C16.6449 29.1572 16.8959 29.2161 17.1505 29.2167H30.5838C30.8341 29.2155 31.081 29.158 31.3061 29.0483C31.5311 28.9387 31.7286 28.7798 31.8838 28.5833C33.6406 26.3968 34.6199 23.6878 34.6671 20.8833V6.66667C34.6671 6.00363 34.4037 5.36774 33.9349 4.8989C33.4661 4.43006 32.8302 4.16667 32.1671 4.16667ZM30.5005 31.6667H15.5005C14.8374 31.6667 14.2015 31.9301 13.7327 32.3989C13.2639 32.8677 13.0005 33.5036 13.0005 34.1667V37.5C13.0005 38.163 13.2639 38.7989 13.7327 39.2678C14.2015 39.7366 14.8374 40 15.5005 40H30.5005C31.1635 40 31.7994 39.7366 32.2682 39.2678C32.7371 38.7989 33.0005 38.163 33.0005 37.5V34.1667C33.0005 33.5036 32.7371 32.8677 32.2682 32.3989C31.7994 31.9301 31.1635 31.6667 30.5005 31.6667ZM17.5838 37.0833C17.3366 37.0833 17.0949 37.01 16.8893 36.8727C16.6838 36.7353 16.5236 36.5401 16.429 36.3117C16.3343 36.0833 16.3096 35.8319 16.3578 35.5895C16.4061 35.347 16.5251 35.1243 16.6999 34.9494C16.8747 34.7746 17.0975 34.6556 17.3399 34.6074C17.5824 34.5591 17.8337 34.5839 18.0622 34.6785C18.2906 34.7731 18.4858 34.9333 18.6231 35.1389C18.7605 35.3444 18.8338 35.5861 18.8338 35.8333C18.8298 36.1579 18.7013 36.4685 18.4749 36.7011C18.2485 36.9337 17.9415 37.0705 17.6171 37.0833H17.5838ZM23.0005 37.0833C22.7532 37.0833 22.5116 37.01 22.306 36.8727C22.1004 36.7353 21.9402 36.5401 21.8456 36.3117C21.751 36.0833 21.7263 35.8319 21.7745 35.5895C21.8227 35.347 21.9418 35.1243 22.1166 34.9494C22.2914 34.7746 22.5141 34.6556 22.7566 34.6074C22.9991 34.5591 23.2504 34.5839 23.4788 34.6785C23.7072 34.7731 23.9025 34.9333 24.0398 35.1389C24.1772 35.3444 24.2505 35.5861 24.2505 35.8333C24.2464 36.1579 24.118 36.4685 23.8916 36.7011C23.6652 36.9337 23.3581 37.0705 23.0338 37.0833H23.0005ZM28.4171 37.0833C28.1699 37.0833 27.9282 37.01 27.7227 36.8727C27.5171 36.7353 27.3569 36.5401 27.2623 36.3117C27.1677 36.0833 27.1429 35.8319 27.1912 35.5895C27.2394 35.347 27.3584 35.1243 27.5332 34.9494C27.7081 34.7746 27.9308 34.6556 28.1733 34.6074C28.4157 34.5591 28.6671 34.5839 28.8955 34.6785C29.1239 34.7731 29.3191 34.9333 29.4565 35.1389C29.5938 35.3444 29.6671 35.5861 29.6671 35.8333C29.6631 36.1579 29.5347 36.4685 29.3083 36.7011C29.0819 36.9337 28.7748 37.0705 28.4505 37.0833H28.4171Z" fill="#4FBCFE"/>
</svg>
