<svg width="41" height="40" viewBox="0 0 41 40" fill="none" xmlns="http://www.w3.org/2000/svg">
<path d="M6.73898 4.6935C6.76992 4.31737 6.94466 3.96765 7.22685 3.71706C7.50904 3.46647 7.87696 3.33431 8.2541 3.34804C8.63125 3.36178 8.98858 3.52037 9.25179 3.79082C9.515 4.06128 9.66382 4.42279 9.66732 4.80016V12.2902C9.66732 12.5664 9.77706 12.8314 9.97241 13.0267C10.1678 13.2221 10.4327 13.3318 10.709 13.3318C10.9853 13.3318 11.2502 13.2221 11.4456 13.0267C11.6409 12.8314 11.7507 12.5664 11.7507 12.2902V4.5835C11.7507 4.25198 11.8823 3.93403 12.1168 3.69961C12.3512 3.46519 12.6691 3.3335 13.0007 3.3335C13.3322 3.3335 13.6501 3.46519 13.8845 3.69961C14.119 3.93403 14.2507 4.25198 14.2507 4.5835V12.2902C14.2507 12.5664 14.3604 12.8314 14.5557 13.0267C14.7511 13.2221 15.016 13.3318 15.2923 13.3318C15.5686 13.3318 15.8335 13.2221 16.0289 13.0267C16.2242 12.8314 16.334 12.5664 16.334 12.2902V4.80016C16.3375 4.42279 16.4863 4.06128 16.7495 3.79082C17.0127 3.52037 17.3701 3.36178 17.7472 3.34804C18.1243 3.33431 18.4923 3.46647 18.7745 3.71706C19.0566 3.96765 19.2314 4.31737 19.2623 4.6935C19.334 5.7135 19.6673 10.6168 19.6673 13.3335C19.6673 15.5835 18.5506 17.5735 16.8473 18.7785C16.4873 19.0335 16.4007 19.3035 16.409 19.4402C16.614 22.5702 17.1673 31.1368 17.1673 32.4952C17.1673 33.6002 16.7283 34.66 15.9469 35.4414C15.1655 36.2228 14.1057 36.6618 13.0007 36.6618C11.8956 36.6618 10.8358 36.2228 10.0544 35.4414C9.27297 34.66 8.83398 33.6002 8.83398 32.4952C8.83398 31.1352 9.38732 22.5702 9.59232 19.4402C9.60065 19.3035 9.51398 19.0335 9.15398 18.7785C8.2825 18.1628 7.57152 17.347 7.08081 16.3995C6.59009 15.452 6.33398 14.4005 6.33398 13.3335C6.33398 10.6168 6.66732 5.7135 6.73898 4.6935ZM22.1673 12.9168C22.1673 10.3752 23.177 7.93761 24.9742 6.14039C26.7714 4.34317 29.209 3.3335 31.7506 3.3335C32.0822 3.3335 32.4001 3.46519 32.6345 3.69961C32.869 3.93403 33.0006 4.25198 33.0006 4.5835V18.7502C33.0006 19.2802 33.1773 21.9085 33.3756 24.8202L33.384 24.9585C33.6006 28.1385 33.834 31.5968 33.834 32.4952C33.834 33.6002 33.395 34.66 32.6136 35.4414C31.8322 36.2228 30.7724 36.6618 29.6673 36.6618C28.5622 36.6618 27.5024 36.2228 26.721 35.4414C25.9396 34.66 25.5006 33.6002 25.5006 32.4952C25.5006 31.6385 25.714 28.1435 25.9206 24.9385C26.024 23.3202 26.129 21.7518 26.2073 20.5885L26.2456 20.0002H25.084C24.701 20.0002 24.3217 19.9247 23.9678 19.7781C23.614 19.6316 23.2924 19.4167 23.0216 19.1459C22.7507 18.8751 22.5359 18.5535 22.3893 18.1997C22.2428 17.8458 22.1673 17.4665 22.1673 17.0835V12.9168Z" fill="#4FBCFE"/>
</svg>
