<svg width="41" height="40" viewBox="0 0 41 40" fill="none" xmlns="http://www.w3.org/2000/svg">
<path d="M7.16732 5L10.5007 11.6667H15.5007L12.1673 5H15.5007L18.834 11.6667H23.834L20.5007 5H23.834L27.1673 11.6667H32.1673L28.834 5H33.834C34.7507 5 35.5357 5.32667 36.189 5.98C36.8423 6.63333 37.1684 7.41778 37.1673 8.33333V31.6667C37.1673 32.5833 36.8412 33.3683 36.189 34.0217C35.5368 34.675 34.7518 35.0011 33.834 35H7.16732C6.25065 35 5.46621 34.6739 4.81398 34.0217C4.16176 33.3694 3.8351 32.5844 3.83398 31.6667V8.33333C3.83398 7.41667 4.16065 6.63222 4.81398 5.98C5.46732 5.32778 6.25176 5.00111 7.16732 5ZM13.834 30H27.1673V29.0833C27.1673 27.8611 26.5562 26.875 25.334 26.125C24.1118 25.375 22.5007 25 20.5007 25C18.5007 25 16.8895 25.375 15.6673 26.125C14.4451 26.875 13.834 27.8611 13.834 29.0833V30ZM20.5007 23.3333C21.4173 23.3333 22.2023 23.0072 22.8557 22.355C23.509 21.7028 23.8351 20.9178 23.834 20C23.8329 19.0822 23.5068 18.2978 22.8557 17.6467C22.2045 16.9956 21.4195 16.6689 20.5007 16.6667C19.5818 16.6644 18.7973 16.9911 18.1473 17.6467C17.4973 18.3022 17.1707 19.0867 17.1673 20C17.164 20.9133 17.4907 21.6983 18.1473 22.355C18.804 23.0117 19.5884 23.3378 20.5007 23.3333Z" fill="#4FBCFE"/>
</svg>
