<svg width="41" height="40" viewBox="0 0 41 40" fill="none" xmlns="http://www.w3.org/2000/svg">
<path d="M20.5 36.6668C17.8889 36.3335 15.5556 35.6668 13.5 34.6668C11.4444 33.6668 9.70167 32.3613 8.27167 30.7502C6.84167 29.1391 5.75111 27.2713 5 25.1468C4.24889 23.0224 3.87389 20.6679 3.875 18.0835C6.93056 18.3891 9.51389 18.9446 11.625 19.7502C13.7361 20.5557 15.4517 21.6946 16.7717 23.1668C18.0917 24.6391 19.0428 26.4796 19.625 28.6885C20.2072 30.8974 20.4989 33.5568 20.5 36.6668ZM20.5 22.6252C19.8611 21.6529 18.9933 20.6946 17.8967 19.7502C16.8 18.8057 15.5289 17.9446 14.0833 17.1668C14.25 16.0002 14.5278 14.7918 14.9167 13.5418C15.3056 12.2918 15.7778 11.0629 16.3333 9.85516C16.8889 8.64739 17.5211 7.48739 18.23 6.37516C18.9389 5.26294 19.6956 4.24905 20.5 3.3335C21.3056 4.25016 22.0628 5.26405 22.7717 6.37516C23.4806 7.48627 24.1122 8.64627 24.6667 9.85516C25.2211 11.0641 25.6933 12.2929 26.0833 13.5418C26.4733 14.7907 26.7511 15.9991 26.9167 17.1668C25.4722 17.9168 24.2017 18.7641 23.105 19.7085C22.0083 20.6529 21.14 21.6252 20.5 22.6252ZM23.8333 36.0002C23.7778 34.0557 23.6322 32.2568 23.3967 30.6035C23.1611 28.9502 22.7928 27.3879 22.2917 25.9168C23.5972 23.6668 25.3961 21.8335 27.6883 20.4168C29.9806 19.0002 33.1261 18.2224 37.125 18.0835C37.1528 22.4724 35.9789 26.2574 33.6033 29.4385C31.2278 32.6196 27.9711 34.8068 23.8333 36.0002Z" fill="#4FBCFE"/>
</svg>
