<svg width="20" height="21" viewBox="0 0 20 21" fill="none" xmlns="http://www.w3.org/2000/svg">
<g clip-path="url(#clip0_7805_3117)">
<path d="M8.0915 9.61739C7.93458 9.46047 7.72175 9.37232 7.49983 9.37232C7.27791 9.37232 7.06508 9.46047 6.90816 9.61739C6.75124 9.77431 6.66309 9.98714 6.66309 10.2091C6.66309 10.431 6.75124 10.6438 6.90816 10.8007L9.40816 13.3007C9.48603 13.378 9.57838 13.4391 9.67991 13.4805C9.78144 13.522 9.89016 13.543 9.99983 13.5424C10.1139 13.5388 10.226 13.5118 10.3292 13.463C10.4325 13.4143 10.5246 13.3449 10.5998 13.2591L16.4332 6.59239C16.5679 6.42517 16.6328 6.2124 16.6145 5.99846C16.5961 5.78452 16.4959 5.58592 16.3347 5.44407C16.1735 5.30221 15.9638 5.22806 15.7492 5.23706C15.5347 5.24606 15.3319 5.33753 15.1832 5.49239L9.99983 11.4924L8.0915 9.61739Z" fill="#EF423E"/>
<path d="M17.5 9.37549C17.279 9.37549 17.067 9.46329 16.9108 9.61957C16.7545 9.77585 16.6667 9.98781 16.6667 10.2088C16.6667 11.9769 15.9643 13.6726 14.7141 14.9229C13.4638 16.1731 11.7681 16.8755 10 16.8755C8.68341 16.8749 7.39648 16.4845 6.30148 15.7534C5.20648 15.0224 4.35244 13.9835 3.84707 12.7678C3.34171 11.5521 3.20763 10.2139 3.46175 8.92206C3.71587 7.63023 4.34681 6.44256 5.27501 5.50882C5.89226 4.88331 6.62807 4.38719 7.43939 4.0495C8.2507 3.71181 9.12122 3.53933 10 3.54215C10.5329 3.54549 11.0638 3.60697 11.5833 3.72549C11.6921 3.75912 11.8065 3.77012 11.9197 3.75782C12.0328 3.74552 12.1422 3.71018 12.2412 3.65397C12.3401 3.59776 12.4265 3.52188 12.495 3.43101C12.5635 3.34013 12.6127 3.23619 12.6395 3.12558C12.6663 3.01498 12.6701 2.90006 12.6508 2.7879C12.6315 2.67575 12.5894 2.56875 12.5272 2.47348C12.4649 2.37822 12.3838 2.29671 12.2888 2.234C12.1939 2.17128 12.0871 2.12868 11.975 2.10882C11.3276 1.95652 10.6651 1.87824 10 1.87549C8.35362 1.88404 6.74666 2.38009 5.38192 3.30103C4.01718 4.22197 2.95582 5.52654 2.33177 7.0501C1.70773 8.57365 1.54897 10.2479 1.87554 11.8616C2.2021 13.4753 2.99935 14.9561 4.16667 16.1172C5.71392 17.6651 7.81138 18.537 10 18.5422C12.2101 18.5422 14.3298 17.6642 15.8926 16.1014C17.4554 14.5386 18.3333 12.419 18.3333 10.2088C18.3333 9.98781 18.2455 9.77585 18.0893 9.61957C17.933 9.46329 17.721 9.37549 17.5 9.37549Z" fill="#EF423E"/>
</g>
<defs>
<clipPath id="clip0_7805_3117">
<rect width="20" height="20" fill="white" transform="translate(0 0.208984)"/>
</clipPath>
</defs>
</svg>
