<svg width="20" height="20" viewBox="0 0 20 20" fill="none" xmlns="http://www.w3.org/2000/svg">
<g clip-path="url(#clip0_7805_9942)">
<path d="M8.0915 9.40841C7.93458 9.25149 7.72175 9.16333 7.49983 9.16333C7.27791 9.16333 7.06508 9.25149 6.90816 9.40841C6.75124 9.56533 6.66309 9.77816 6.66309 10.0001C6.66309 10.222 6.75124 10.4348 6.90816 10.5917L9.40816 13.0917C9.48603 13.169 9.57838 13.2301 9.67991 13.2716C9.78144 13.313 9.89016 13.334 9.99983 13.3334C10.1139 13.3298 10.226 13.3028 10.3292 13.254C10.4325 13.2053 10.5246 13.1359 10.5998 13.0501L16.4332 6.38341C16.5679 6.21618 16.6328 6.00342 16.6145 5.78948C16.5961 5.57554 16.4959 5.37694 16.3347 5.23508C16.1735 5.09323 15.9638 5.01907 15.7492 5.02808C15.5347 5.03708 15.3319 5.12855 15.1832 5.28341L9.99983 11.2834L8.0915 9.40841Z" fill="#FEB092"/>
<path d="M17.5 9.1665C17.279 9.1665 17.067 9.2543 16.9108 9.41058C16.7545 9.56686 16.6667 9.77882 16.6667 9.99984C16.6667 11.7679 15.9643 13.4636 14.7141 14.7139C13.4638 15.9641 11.7681 16.6665 10 16.6665C8.68341 16.6659 7.39648 16.2755 6.30148 15.5445C5.20648 14.8134 4.35244 13.7746 3.84707 12.5588C3.34171 11.3431 3.20763 10.0049 3.46175 8.71308C3.71587 7.42124 4.34681 6.23357 5.27501 5.29984C5.89226 4.67432 6.62807 4.17821 7.43939 3.84051C8.2507 3.50282 9.12122 3.33035 10 3.33317C10.5329 3.33651 11.0638 3.39798 11.5833 3.5165C11.6921 3.55013 11.8065 3.56114 11.9197 3.54884C12.0328 3.53654 12.1422 3.50119 12.2412 3.44499C12.3401 3.38878 12.4265 3.3129 12.495 3.22202C12.5635 3.13115 12.6127 3.0272 12.6395 2.9166C12.6663 2.80599 12.6701 2.69107 12.6508 2.57892C12.6315 2.46677 12.5894 2.35976 12.5272 2.2645C12.4649 2.16923 12.3838 2.08773 12.2888 2.02501C12.1939 1.9623 12.0871 1.9197 11.975 1.89984C11.3276 1.74754 10.6651 1.66926 10 1.6665C8.35362 1.67506 6.74666 2.1711 5.38192 3.09205C4.01718 4.01299 2.95582 5.31756 2.33177 6.84111C1.70773 8.36467 1.54897 10.0389 1.87554 11.6526C2.2021 13.2663 2.99935 14.7471 4.16667 15.9082C5.71392 17.4561 7.81138 18.3281 10 18.3332C12.2101 18.3332 14.3298 17.4552 15.8926 15.8924C17.4554 14.3296 18.3333 12.21 18.3333 9.99984C18.3333 9.77882 18.2455 9.56686 18.0893 9.41058C17.933 9.2543 17.721 9.1665 17.5 9.1665Z" fill="#FEB092"/>
</g>
<defs>
<clipPath id="clip0_7805_9942">
<rect width="20" height="20" fill="white"/>
</clipPath>
</defs>
</svg>
