<svg width="20" height="20" viewBox="0 0 20 20" fill="none" xmlns="http://www.w3.org/2000/svg">
<g clip-path="url(#clip0_7251_14718)">
<path d="M13.8613 14.9147C13.8622 14.7698 13.8327 14.6262 13.7745 14.4921C13.7163 14.3579 13.6306 14.2359 13.5222 14.1331L9.6514 10.511L13.3702 6.87796C13.588 6.67168 13.7102 6.39265 13.7102 6.1018C13.7102 5.81096 13.588 5.53192 13.3702 5.32565C13.2614 5.22246 13.1321 5.14056 12.9896 5.08467C12.8471 5.02878 12.6942 5 12.5399 5C12.3855 5 12.2326 5.02878 12.0901 5.08467C11.9476 5.14056 11.8183 5.22246 11.7096 5.32565L7.19562 9.72935C6.98135 9.93515 6.86133 10.2118 6.86133 10.5C6.86133 10.7882 6.98135 11.0649 7.19562 11.2706L11.8733 15.6743C11.982 15.7775 12.1113 15.8594 12.2539 15.9153C12.3964 15.9712 12.5492 16 12.7036 16C12.858 16 13.0108 15.9712 13.1533 15.9153C13.2958 15.8594 13.4252 15.7775 13.5339 15.6743C13.7428 15.4703 13.8601 15.1982 13.8613 14.9147Z" fill="#EF423E"/>
</g>
<defs>
<clipPath id="clip0_7251_14718">
<rect width="20" height="20" fill="white" transform="matrix(0 1 1 0 0 0)"/>
</clipPath>
</defs>
</svg>
