<svg width="50" height="50" viewBox="0 0 50 50" fill="none" xmlns="http://www.w3.org/2000/svg">
<path d="M25 0.5C38.531 0.5 49.5 11.469 49.5 25C49.5 38.531 38.531 49.5 25 49.5C11.469 49.5 0.5 38.531 0.5 25C0.5 11.469 11.469 0.5 25 0.5Z" stroke="url(#paint0_linear_6265_1357)"/>
<g clip-path="url(#clip0_6265_1357)">
<path d="M33.75 26.25H18.925L23.4625 31.7C23.5676 31.8264 23.6467 31.9722 23.6954 32.1292C23.7441 32.2862 23.7614 32.4512 23.7463 32.6149C23.7158 32.9454 23.5553 33.2503 23.3 33.4625C23.0447 33.6747 22.7156 33.7768 22.3851 33.7463C22.0546 33.7158 21.7497 33.5553 21.5375 33.3L15.2875 25.8C15.2455 25.7403 15.2078 25.6777 15.175 25.6125C15.175 25.55 15.1125 25.5125 15.0875 25.45C15.0308 25.3067 15.0012 25.1541 15 25C15.0012 24.8459 15.0308 24.6933 15.0875 24.55C15.0875 24.4875 15.15 24.45 15.175 24.3875C15.2078 24.3223 15.2455 24.2597 15.2875 24.2L21.5375 16.7C21.655 16.5589 21.8022 16.4454 21.9686 16.3676C22.1349 16.2899 22.3164 16.2497 22.5 16.25C22.7921 16.2494 23.0751 16.3512 23.3 16.5375C23.4266 16.6424 23.5312 16.7713 23.6079 16.9167C23.6846 17.0622 23.7318 17.2213 23.7469 17.385C23.762 17.5488 23.7447 17.7138 23.6959 17.8709C23.6471 18.0279 23.5678 18.1737 23.4625 18.3L18.925 23.75H33.75C34.0815 23.75 34.3995 23.8817 34.6339 24.1161C34.8683 24.3505 35 24.6685 35 25C35 25.3315 34.8683 25.6495 34.6339 25.8839C34.3995 26.1183 34.0815 26.25 33.75 26.25Z" fill="url(#paint1_linear_6265_1357)"/>
</g>
<defs>
<linearGradient id="paint0_linear_6265_1357" x1="25" y1="0" x2="25" y2="50" gradientUnits="userSpaceOnUse">
<stop stop-color="#EF423E"/>
<stop offset="1" stop-color="#FD6428"/>
</linearGradient>
<linearGradient id="paint1_linear_6265_1357" x1="25" y1="16.25" x2="25" y2="33.7516" gradientUnits="userSpaceOnUse">
<stop stop-color="#EF423E"/>
<stop offset="1" stop-color="#FD6428"/>
</linearGradient>
<clipPath id="clip0_6265_1357">
<rect width="30" height="30" fill="white" transform="matrix(-1 0 0 1 40 10)"/>
</clipPath>
</defs>
</svg>
