<svg width="80" height="80" viewBox="0 0 80 80" fill="none" xmlns="http://www.w3.org/2000/svg">
<path d="M54.0993 59.9998L39.9994 51.4998L25.8993 59.9998L29.6327 43.9665L17.1993 33.1998L33.5993 31.7998L39.9994 16.6665L46.3993 31.7665L62.7994 33.1665L50.366 43.9332L54.0993 59.9998ZM39.9994 6.6665C21.566 6.6665 6.66602 21.6665 6.66602 39.9998C6.66602 48.8404 10.1779 57.3189 16.4291 63.5701C19.5244 66.6654 23.199 69.1207 27.2432 70.7958C31.2874 72.471 35.622 73.3332 39.9994 73.3332C48.8399 73.3332 57.3184 69.8213 63.5696 63.5701C69.8208 57.3189 73.3327 48.8404 73.3327 39.9998C73.3327 35.6224 72.4705 31.2879 70.7953 27.2437C69.1202 23.1995 66.6649 19.5249 63.5696 16.4296C60.4743 13.3343 56.7997 10.879 52.7555 9.20385C48.7113 7.5287 44.3767 6.6665 39.9994 6.6665Z" fill="#8493FF"/>
</svg>
