<svg width="32" height="32" viewBox="0 0 32 32" fill="none" xmlns="http://www.w3.org/2000/svg">
<g clip-path="url(#clip0_7375_15773)">
<path d="M20.9147 12.1383C20.7698 12.1374 20.6262 12.1669 20.4921 12.2251C20.3579 12.2833 20.2359 12.3691 20.1331 12.4775L16.511 16.3482L12.878 12.6295C12.6717 12.4117 12.3927 12.2894 12.1018 12.2894C11.811 12.2894 11.5319 12.4117 11.3257 12.6295C11.2225 12.7382 11.1406 12.8675 11.0847 13.01C11.0288 13.1525 11 13.3054 11 13.4598C11 13.6141 11.0288 13.767 11.0847 13.9095C11.1406 14.052 11.2225 14.1813 11.3257 14.2901L15.7294 18.804C15.9351 19.0183 16.2118 19.1383 16.5 19.1383C16.7882 19.1383 17.0649 19.0183 17.2706 18.804L21.6743 14.1263C21.7775 14.0176 21.8594 13.8883 21.9153 13.7458C21.9712 13.6033 22 13.4504 22 13.2961C22 13.1417 21.9712 12.9888 21.9153 12.8463C21.8594 12.7038 21.7775 12.5745 21.6743 12.4658C21.4703 12.2568 21.1982 12.1395 20.9147 12.1383Z" fill="#191919"/>
</g>
<defs>
<clipPath id="clip0_7375_15773">
<rect width="32" height="32" fill="white" transform="matrix(1 0 0 -1 0 32)"/>
</clipPath>
</defs>
</svg>
