<svg width="67" height="43" viewBox="0 0 67 43" fill="none" xmlns="http://www.w3.org/2000/svg">
<path d="M23.8086 4.87402H43.5963V37.6754H23.8086V4.87402Z" fill="#FF5F00"/>
<path d="M25.8467 21.2779C25.8443 18.1194 26.5498 15.0017 27.9098 12.1608C29.2698 9.31991 31.2487 6.8302 33.6967 4.8801C30.6647 2.46169 27.0235 0.957831 23.1892 0.540386C19.3548 0.122941 15.4822 0.808755 12.0137 2.51945C8.54527 4.23014 5.62101 6.89669 3.57514 10.2143C1.52927 13.532 0.444336 17.3669 0.444336 21.2807C0.444336 25.1946 1.52927 29.0295 3.57514 32.3471C5.62101 35.6647 8.54527 38.3313 12.0137 40.042C15.4822 41.7527 19.3548 42.4385 23.1892 42.021C27.0235 41.6036 30.6647 40.0997 33.6967 37.6813C31.2479 35.7306 29.2686 33.24 27.9085 30.398C26.5485 27.556 25.8434 24.4372 25.8467 21.2778V21.2779Z" fill="#EB001B"/>
<path d="M66.9518 21.2778C66.9517 25.192 65.8665 29.0271 63.8203 32.3449C61.774 35.6626 58.8493 38.3291 55.3804 40.0396C51.9115 41.75 48.0385 42.4354 44.2039 42.0173C40.3694 41.5993 36.7281 40.0947 33.6963 37.6755C36.1434 35.7237 38.1217 33.2333 39.4821 30.3922C40.8424 27.5512 41.5493 24.4336 41.5493 21.2749C41.5493 18.1161 40.8424 14.9986 39.4821 12.1575C38.1217 9.31648 36.1434 6.82609 33.6963 4.87426C36.7281 2.45508 40.3694 0.950467 44.2039 0.532414C48.0385 0.114361 51.9116 0.799735 55.3805 2.51019C58.8494 4.22065 61.7741 6.88717 63.8203 10.2049C65.8665 13.5227 66.9517 17.3579 66.9518 21.272V21.2778Z" fill="#F79E1B"/>
</svg>
