<svg width="80" height="80" viewBox="0 0 80 80" fill="none" xmlns="http://www.w3.org/2000/svg">
<path d="M50 63.3335C48.2319 63.3335 46.5362 62.6311 45.286 61.3809C44.0357 60.1306 43.3333 58.4349 43.3333 56.6668V36.6668C43.3333 26.2335 48.8333 19.3568 59.19 16.7668C59.6158 16.6569 60.0591 16.6324 60.4944 16.6945C60.9298 16.7567 61.3485 16.9044 61.7265 17.1291C62.1045 17.3539 62.4342 17.6511 62.6968 18.0039C62.9594 18.3566 63.1496 18.7578 63.2565 19.1844C63.3634 19.6109 63.3848 20.0544 63.3195 20.4893C63.2542 20.9241 63.1035 21.3418 62.8761 21.7182C62.6487 22.0946 62.3491 22.4222 61.9945 22.6823C61.6399 22.9423 61.2373 23.1297 60.81 23.2335C53.3867 25.0902 50 29.3235 50 36.6668V40.0002H60C61.6819 39.9996 63.3019 40.6348 64.5352 41.7785C65.7684 42.9221 66.5239 44.4896 66.65 46.1668L66.6667 46.6668V56.6668C66.6667 58.4349 65.9643 60.1306 64.714 61.3809C63.4638 62.6311 61.7681 63.3335 60 63.3335H50ZM20 63.3335C18.2319 63.3335 16.5362 62.6311 15.286 61.3809C14.0357 60.1306 13.3333 58.4349 13.3333 56.6668V36.6668C13.3333 26.2335 18.8333 19.3568 29.19 16.7668C29.6158 16.6569 30.0591 16.6324 30.4944 16.6945C30.9298 16.7567 31.3485 16.9044 31.7265 17.1291C32.1045 17.3539 32.4343 17.6511 32.6968 18.0039C32.9594 18.3566 33.1496 18.7578 33.2565 19.1844C33.3634 19.6109 33.3848 20.0544 33.3195 20.4893C33.2542 20.9241 33.1035 21.3418 32.8761 21.7182C32.6487 22.0946 32.3491 22.4222 31.9945 22.6823C31.6399 22.9423 31.2373 23.1297 30.81 23.2335C23.3867 25.0902 20 29.3235 20 36.6668V40.0002H30C31.6819 39.9996 33.3019 40.6348 34.5352 41.7785C35.7684 42.9221 36.5239 44.4896 36.65 46.1668L36.6667 46.6668V56.6668C36.6667 58.4349 35.9643 60.1306 34.714 61.3809C33.4638 62.6311 31.7681 63.3335 30 63.3335H20Z" fill="#191919"/>
</svg>
