<svg width="20" height="20" viewBox="0 0 20 20" fill="none" xmlns="http://www.w3.org/2000/svg">
<path d="M10 6.66699H17.0833C17.4149 6.66699 17.7328 6.79869 17.9672 7.03311C18.2016 7.26753 18.3333 7.58547 18.3333 7.91699C18.3333 8.24851 18.2016 8.56646 17.9672 8.80088C17.7328 9.0353 17.4149 9.16699 17.0833 9.16699H10.8333M11.25 9.16699H12.9167C13.2482 9.16699 13.5661 9.29869 13.8005 9.53311C14.035 9.76753 14.1667 10.0855 14.1667 10.417C14.1667 10.7485 14.035 11.0665 13.8005 11.3009C13.5661 11.5353 13.2482 11.667 12.9167 11.667H10.8333M12.0833 11.667C12.4149 11.667 12.7328 11.7987 12.9672 12.0331C13.2016 12.2675 13.3333 12.5855 13.3333 12.917C13.3333 13.2485 13.2016 13.5665 12.9672 13.8009C12.7328 14.0353 12.4149 14.167 12.0833 14.167H10.8333" stroke="url(#paint0_linear_6161_1794)" stroke-width="1.5" stroke-linecap="round" stroke-linejoin="round"/>
<path d="M11.25 14.1668C11.5815 14.1668 11.8995 14.2985 12.1339 14.5329C12.3683 14.7674 12.5 15.0853 12.5 15.4168C12.5 15.7483 12.3683 16.0663 12.1339 16.3007C11.8995 16.5351 11.5815 16.6668 11.25 16.6668H7.5C6.17392 16.6668 4.90215 16.14 3.96447 15.2024C3.02678 14.2647 2.5 12.9929 2.5 11.6668V10.0002V10.1735C2.49986 9.34543 2.70538 8.53031 3.0981 7.80131C3.49081 7.0723 4.05844 6.45225 4.75 5.99682L5 5.83349C5.39889 5.57349 6.99 4.66071 9.77333 3.09515C10.0571 2.93553 10.3919 2.89289 10.7065 2.9763C11.0212 3.05972 11.2909 3.26261 11.4583 3.54182C11.825 4.15349 11.7292 4.93682 11.225 5.44182L10 6.66682" stroke="url(#paint1_linear_6161_1794)" stroke-width="1.5" stroke-linecap="round" stroke-linejoin="round"/>
<defs>
<linearGradient id="paint0_linear_6161_1794" x1="14.1667" y1="6.66699" x2="14.1667" y2="14.167" gradientUnits="userSpaceOnUse">
<stop stop-color="#EF423E"/>
<stop offset="1" stop-color="#FD6428"/>
</linearGradient>
<linearGradient id="paint1_linear_6161_1794" x1="7.5" y1="2.93457" x2="7.5" y2="16.6668" gradientUnits="userSpaceOnUse">
<stop stop-color="#EF423E"/>
<stop offset="1" stop-color="#FD6428"/>
</linearGradient>
</defs>
</svg>
