<svg width="89" height="55" viewBox="0 0 89 55" fill="none" xmlns="http://www.w3.org/2000/svg">
<path d="M31.6704 5.84082H57.9646V48.787H31.6704V5.84082Z" fill="#FF5F00"/>
<path d="M34.3787 27.3177C34.3755 23.1824 35.3129 19.1005 37.1201 15.381C38.9273 11.6614 41.5569 8.40167 44.8099 5.84844C40.7809 2.68208 35.9424 0.713098 30.8473 0.166545C25.7522 -0.380007 20.6061 0.517916 15.9972 2.75769C11.3883 4.99747 7.50249 8.48873 4.78391 12.8325C2.06533 17.1762 0.623657 22.1971 0.623657 27.3215C0.623657 32.4458 2.06533 37.4667 4.78391 41.8105C7.50249 46.1542 11.3883 49.6455 15.9972 51.8852C20.6061 54.125 25.7522 55.0229 30.8473 54.4764C35.9424 53.9298 40.7809 51.9608 44.8099 48.7945C41.5559 46.2405 38.9257 42.9795 37.1184 39.2585C35.3112 35.5376 34.3743 31.4542 34.3787 27.3176V27.3177Z" fill="#EB001B"/>
<path d="M89.0002 27.3178C89 32.4425 87.558 37.4638 84.839 41.8077C82.1199 46.1516 78.2335 49.6428 73.624 51.8822C69.0145 54.1217 63.8679 55.019 58.7725 54.4716C53.6771 53.9243 48.8385 51.9543 44.8098 48.787C48.0615 46.2315 50.6904 42.9708 52.498 39.2511C54.3057 35.5314 55.245 31.4497 55.245 27.3139C55.245 23.1782 54.3057 19.0965 52.498 15.3768C50.6904 11.657 48.0615 8.39642 44.8098 5.84092C48.8385 2.67354 53.6771 0.703583 58.7725 0.156234C63.8679 -0.391115 69.0145 0.506231 73.624 2.7457C78.2336 4.98517 82.12 8.47639 84.839 12.8203C87.5581 17.1642 89.0001 22.1855 89.0002 27.3102V27.3178Z" fill="#F79E1B"/>
</svg>
